<svg width="75" height="77" viewBox="0 0 75 77" fill="none" xmlns="http://www.w3.org/2000/svg">
<g id="647c8817f0b245d6434c39b0_light-flowerhead 5" clip-path="url(#clip0_322_487)">
<g id="Clip path group">
<mask id="mask0_322_487" style="mask-type:luminance" maskUnits="userSpaceOnUse" x="0" y="0" width="75" height="77">
<g id="clip0_208_85">
<path id="Vector" d="M-3.36578e-06 77L0 0L75 3.27835e-06L75 77L-3.36578e-06 77Z" fill="white"/>
</g>
</mask>
<g mask="url(#mask0_322_487)">
<g id="Group">
<path id="Vector_2" d="M33.4162 37.5373C33.4162 37.5373 26.3164 34.2884 21.7645 33.8762C17.2126 33.4639 10.1907 33.8181 8.36934 35.7082C6.54797 37.5983 0.0458202 46.5547 0.306445 49.2515C0.567069 51.9482 2.38703 54.6583 3.16741 59.1812C3.94779 63.704 13.832 77.2725 19.684 74.4285C25.5361 71.5844 22.8056 67.063 25.6665 64.3499C28.5274 61.6368 39.7102 46.2794 33.4162 37.5373Z" stroke="white" stroke-linecap="round" stroke-linejoin="round"/>
<path id="Vector_3" d="M18.5137 74.8137C18.5137 74.8137 32.0212 76.7856 34.4013 50.7261" stroke="white" stroke-linecap="round" stroke-linejoin="round"/>
<path id="Vector_4" d="M14.5805 33.8759C14.5805 33.8759 7.58867 29.9737 6.02792 28.5524C4.46716 27.1311 2.38667 24.6755 4.46717 21.4459C6.54768 18.2164 8.1129 17.0526 9.0865 11.6234C10.0601 6.19416 20.9839 3.61202 25.5358 6.06617C30.0878 8.52032 34.9872 11.4939 35.7212 15.8887C36.4551 20.2836 36.3203 33.0634 36.6513 36.6233" stroke="white" stroke-linecap="round" stroke-linejoin="round"/>
<path id="Vector_5" d="M20.9844 5.13745C20.9844 5.13745 28.4152 5.28628 31.3974 6.45605C34.3797 7.62583 37.9445 11.1084 37.9445 11.1084" stroke="white" stroke-linecap="round" stroke-linejoin="round"/>
<path id="Vector_6" d="M36.0977 19.8997C36.0977 19.8997 38.6726 2.70875 43.4177 0.899015C48.1629 -0.910719 50.2419 1.9408 54.0135 1.9408C57.7851 1.9408 61.1657 1.03594 63.8993 4.39645C66.6328 7.75695 71.0888 11.2633 71.4423 12.9242C72.2227 16.5422 71.5741 19.9072 71.5741 19.9072" stroke="white" stroke-linecap="round" stroke-linejoin="round"/>
<path id="Vector_7" d="M36.6553 34.1914C36.6553 34.1914 37.4462 23.2541 40.9197 17.4394C44.3932 11.6248 51.6652 7.57518 56.0989 10.1053C64.683 14.9897 65.6221 20.3252 68.844 23.2601C71.9655 26.1026 71.7048 33.3803 71.0548 38.4657C70.4047 43.5511 65.5128 47.8418 62.4721 46.3059C56.2291 43.1582 46.4063 41.0062 40.9137 41.8247" stroke="white" stroke-linecap="round" stroke-linejoin="round"/>
<path id="Vector_8" d="M52.9766 9.33448C55.2185 8.99864 57.5099 9.26481 59.6134 10.1054C62.9941 11.5014 67.1401 16.0585 69.3674 17.575C71.5947 19.0916 75.8696 25.4628 74.3103 30.7551C73.2519 34.3496 71.9024 37.853 70.275 41.231" stroke="white" stroke-linecap="round" stroke-linejoin="round"/>
<path id="Vector_9" d="M69.1729 43.1523C69.1729 43.1523 75.3665 46.7242 74.6415 51.1443C73.9166 55.5645 70.5343 56.7655 67.6735 61.784C64.8126 66.8024 58.9591 62.2795 56.7483 67.0599C54.5375 71.8402 51.1568 75.8406 47.6458 76.1056C44.1349 76.3705 39.8197 71.1943 37.9444 67.0599C36.0691 62.9255 38.512 62.1575 36.7056 59.6334C34.8992 57.1093 32.8831 51.8944 36.1064 44.3623" stroke="white" stroke-linecap="round" stroke-linejoin="round"/>
<path id="Vector_10" d="M45.5 75.6726C45.5 75.6726 49.2057 77.6565 54.0602 76.1191C62.7043 73.3747 60.0201 70.998 66.5372 66.9246C74.6016 61.8853 74.8458 56.8043 74.6421 51.1489" stroke="white" stroke-linecap="round" stroke-linejoin="round"/>
<path id="Vector_11" d="M33.8881 43.4739C32.8947 45.9624 31.009 47.9973 28.5947 49.1858" stroke="white" stroke-linecap="round" stroke-linejoin="round"/>
<path id="Vector_12" d="M33.8754 41.938C32.5814 44.0326 30.5545 45.5786 28.1836 46.2793" stroke="white" stroke-linecap="round" stroke-linejoin="round"/>
<path id="Vector_13" d="M32.9141 41.3948C31.241 42.4412 29.3984 43.1924 27.4678 43.6153" stroke="white" stroke-linecap="round" stroke-linejoin="round"/>
<path id="Vector_14" d="M32.9105 39.9971C30.935 41.0123 28.6963 41.4092 26.4893 41.1356" stroke="white" stroke-linecap="round" stroke-linejoin="round"/>
<path id="Vector_15" d="M32.5029 38.9287C30.2911 39.3614 27.9986 39.0971 25.9453 38.1726" stroke="white" stroke-linecap="round" stroke-linejoin="round"/>
<path id="Vector_16" d="M33.9827 36.7572C32.1936 35.6619 30.6553 34.2063 29.4668 32.4844" stroke="white" stroke-linecap="round" stroke-linejoin="round"/>
<path id="Vector_17" d="M34.1009 34.4311C33.2747 32.1016 33.2062 29.573 33.9048 27.2026" stroke="white" stroke-linecap="round" stroke-linejoin="round"/>
<path id="Vector_18" d="M36.0977 37.1397C36.1442 34.3016 37.8413 29.8472 39.5533 28.5271" stroke="white" stroke-linecap="round" stroke-linejoin="round"/>
<path id="Vector_19" d="M37.3887 35.5665C37.5542 34.5982 37.9258 33.676 38.4785 32.8617C39.0313 32.0474 39.7524 31.3596 40.594 30.8442" stroke="white" stroke-linecap="round" stroke-linejoin="round"/>
<path id="Vector_20" d="M38.3555 35.976C39.3935 34.6597 40.8895 33.7768 42.5494 33.501" stroke="white" stroke-linecap="round" stroke-linejoin="round"/>
<path id="Vector_21" d="M38.5645 38.1727C40.4204 37.5997 43.437 36.7573 44.1066 37.3318" stroke="white" stroke-linecap="round" stroke-linejoin="round"/>
<path id="Vector_22" d="M38.2227 39.9599C39.806 39.9107 41.6677 39.6533 42.8435 39.5625" stroke="white" stroke-linecap="round" stroke-linejoin="round"/>
<path id="Vector_23" d="M38.0264 40.8723C38.6705 41.9711 39.5467 42.9182 40.5944 43.6483C41.6422 44.3785 42.8367 44.8744 44.0958 45.102" stroke="white" stroke-linecap="round" stroke-linejoin="round"/>
<path id="Vector_24" d="M38.5645 43.4529C38.9308 44.3971 39.5049 45.248 40.2448 45.9432C40.9847 46.6385 41.8717 47.1606 42.8409 47.4712" stroke="white" stroke-linecap="round" stroke-linejoin="round"/>
<path id="Vector_25" d="M37.119 43.8892C37.0587 45.003 37.3152 46.1113 37.8589 47.0871C38.4027 48.063 39.2119 48.8672 40.1939 49.4076" stroke="white" stroke-linecap="round" stroke-linejoin="round"/>
<path id="Vector_26" d="M34.5867 43.1523C34.5867 45.4115 33.4528 48.1857 32.3594 49.86" stroke="white" stroke-linecap="round" stroke-linejoin="round"/>
<path id="Vector_27" d="M30.6395 37.7603C30.3399 38.4062 29.8232 38.9404 29.5132 39.5849C29.2031 40.2293 29.1478 41.094 29.6795 41.5747C30.0749 41.9334 30.692 41.984 31.053 42.3769C31.7899 43.1805 30.8732 44.5959 31.4469 45.5216C31.7884 46.0707 32.5254 46.2211 33.174 46.1972C33.8225 46.1734 34.486 46.0291 35.1121 46.1972C35.9793 46.4339 36.8991 47.239 37.6301 46.7211C37.9536 46.4934 38.0794 46.0782 38.343 45.785C39.0739 44.9769 40.5898 45.3222 41.2758 44.4709C41.809 43.8026 41.493 42.8219 41.1005 42.0643C40.7081 41.3068 40.2452 40.4466 40.5523 39.6519C40.7755 39.0759 41.3672 38.68 41.5124 38.0802C41.812 36.8569 40.1643 36.0398 39.8243 34.8284C39.7015 34.3923 39.7539 33.9086 39.5487 33.5038C39.2327 32.8802 38.4313 32.6778 37.7288 32.6912C37.0263 32.7046 36.3088 32.8609 35.6318 32.6749C35.4352 32.622 35.2514 32.5304 35.0912 32.4055C34.8 32.1795 34.4327 32.0729 34.0649 32.1078C33.6971 32.1427 33.3568 32.3163 33.114 32.593C32.7965 32.9517 32.4984 33.3103 32.2573 33.6006C31.1758 34.9028 31.3315 36.2988 30.6395 37.7603Z" fill="white"/>
<path id="Vector_28" d="M34.8251 27.9808C34.8251 28.7214 34.2209 29.3218 33.4755 29.3218C32.7302 29.3218 32.126 28.7214 32.126 27.9808C32.126 27.2402 32.7302 26.6399 33.4755 26.6399C34.2209 26.6399 34.8251 27.2402 34.8251 27.9808Z" fill="white"/>
<path id="Vector_29" d="M40.5019 29.4649C39.9807 29.9827 39.1357 29.9827 38.6145 29.4648C38.0933 28.947 38.0934 28.1075 38.6146 27.5896C39.1358 27.0718 39.9807 27.0717 40.5019 27.5895C41.0231 28.1074 41.0231 28.947 40.5019 29.4649Z" fill="white"/>
<path id="Vector_30" d="M41.2486 32.3282C41.4604 32.3282 41.6675 32.2658 41.8436 32.1488C42.0198 32.0319 42.1571 31.8657 42.2381 31.6713C42.3192 31.4768 42.3403 31.2629 42.299 31.0565C42.2577 30.8501 42.1558 30.6604 42.006 30.5116C41.8562 30.3628 41.6654 30.2615 41.4576 30.2204C41.2499 30.1793 41.0346 30.2004 40.8389 30.281C40.6432 30.3615 40.4759 30.4979 40.3582 30.6729C40.2405 30.8479 40.1777 31.0536 40.1777 31.2641C40.1777 31.5463 40.2905 31.817 40.4913 32.0165C40.6922 32.2161 40.9646 32.3282 41.2486 32.3282Z" fill="white"/>
<path id="Vector_31" d="M43.4248 35.3983C42.6238 35.5862 41.8211 35.0932 41.632 34.2972C41.4429 33.5012 41.939 32.7037 42.7401 32.5158C43.5412 32.3279 44.3439 32.8209 44.533 33.6169C44.722 34.4129 44.2259 35.2104 43.4248 35.3983Z" fill="white"/>
<path id="Vector_32" d="M44.4207 37.9816C43.7951 38.1283 43.1683 37.7434 43.0207 37.1218C42.873 36.5002 43.2604 35.8773 43.886 35.7306C44.5116 35.5839 45.1384 35.9689 45.2861 36.5905C45.4337 37.2121 45.0463 37.8348 44.4207 37.9816Z" fill="white"/>
<path id="Vector_33" d="M43.8872 39.9506C43.4327 40.4022 42.6958 40.4022 42.2413 39.9506C41.7867 39.499 41.7868 38.7668 42.2413 38.3152C42.6958 37.8637 43.4326 37.8636 43.8872 38.3152C44.3417 38.7668 44.3417 39.499 43.8872 39.9506Z" fill="white"/>
<path id="Vector_34" d="M46.1372 45.3268C46.1372 46.221 45.4076 46.946 44.5076 46.946C43.6075 46.946 42.8779 46.221 42.8779 45.3268C42.8779 44.4325 43.6075 43.7075 44.5076 43.7075C45.4076 43.7075 46.1372 44.4325 46.1372 45.3268Z" fill="white"/>
<path id="Vector_35" d="M43.437 47.6857C43.437 48.2989 42.9367 48.7959 42.3195 48.7959C41.7024 48.7959 41.2021 48.2989 41.2021 47.6857C41.2021 47.0725 41.7024 46.5754 42.3195 46.5754C42.9367 46.5754 43.437 47.0725 43.437 47.6857Z" fill="white"/>
<path id="Vector_36" d="M40.118 51.5322C39.3225 51.7187 38.5255 51.2293 38.3377 50.4389C38.15 49.6485 38.6426 48.8566 39.4381 48.67C40.2336 48.4835 41.0306 48.973 41.2183 49.7633C41.4061 50.5537 40.9134 51.3456 40.118 51.5322Z" fill="white"/>
<path id="Vector_37" d="M32.5413 50.9498C31.9407 51.0907 31.3388 50.7211 31.1971 50.1243C31.0553 49.5275 31.4273 48.9296 32.0279 48.7887C32.6285 48.6479 33.2303 49.0175 33.3721 49.6142C33.5139 50.211 33.1419 50.809 32.5413 50.9498Z" fill="white"/>
<path id="Vector_38" d="M29.7081 49.3048C29.7081 50.3035 28.8933 51.1131 27.8882 51.1131C26.8831 51.1131 26.0684 50.3035 26.0684 49.3048C26.0684 48.3062 26.8831 47.4966 27.8882 47.4966C28.8933 47.4966 29.7081 48.3062 29.7081 49.3048Z" fill="white"/>
<path id="Vector_39" d="M29.153 46.7685C28.9168 47.335 28.2632 47.604 27.693 47.3694C27.1229 47.1347 26.8521 46.4853 27.0883 45.9188C27.3245 45.3523 27.9781 45.0833 28.5482 45.3179C29.1184 45.5526 29.3891 46.202 29.153 46.7685Z" fill="white"/>
<path id="Vector_40" d="M28.3999 43.7074C28.3999 44.3461 27.8788 44.8638 27.2361 44.8638C26.5933 44.8638 26.0723 44.3461 26.0723 43.7074C26.0723 43.0688 26.5933 42.551 27.2361 42.551C27.8788 42.551 28.3999 43.0688 28.3999 43.7074Z" fill="white"/>
<path id="Vector_41" d="M27.5613 41.2101C27.5613 41.8997 26.9987 42.4587 26.3046 42.4587C25.6106 42.4587 25.0479 41.8997 25.0479 41.2101C25.0479 40.5205 25.6106 39.9614 26.3046 39.9614C26.9987 39.9614 27.5613 40.5205 27.5613 41.2101Z" fill="white"/>
<path id="Vector_42" d="M27.2351 38.2499C27.2351 38.9395 26.6724 39.4985 25.9784 39.4985C25.2843 39.4985 24.7217 38.9395 24.7217 38.2499C24.7217 37.5603 25.2843 37.0012 25.9784 37.0012C26.6724 37.0012 27.2351 37.5603 27.2351 38.2499Z" fill="white"/>
<path id="Vector_43" d="M27.7008 35.7974C27.9035 35.7977 28.1017 35.7383 28.2704 35.6266C28.439 35.5149 28.5705 35.356 28.6483 35.1701C28.7261 34.9841 28.7466 34.7793 28.7073 34.5818C28.6679 34.3842 28.5704 34.2027 28.4272 34.0602C28.2839 33.9176 28.1014 33.8205 27.9026 33.7811C27.7038 33.7417 27.4978 33.7618 27.3105 33.8388C27.1232 33.9158 26.9631 34.0463 26.8505 34.2137C26.7378 34.3812 26.6777 34.5781 26.6777 34.7795C26.6777 35.0492 26.7853 35.3079 26.9771 35.4987C27.169 35.6896 27.4293 35.797 27.7008 35.7974Z" fill="white"/>
<path id="Vector_44" d="M31.3322 32.4664C31.3322 33.2588 30.6857 33.9011 29.8882 33.9011C29.0908 33.9011 28.4443 33.2588 28.4443 32.4664C28.4443 31.6741 29.0908 31.0317 29.8882 31.0317C30.6857 31.0317 31.3322 31.6741 31.3322 32.4664Z" fill="white"/>
</g>
</g>
</g>
</g>
<defs>
<clipPath id="clip0_322_487">
<rect width="75" height="77" fill="white"/>
</clipPath>
</defs>
</svg>
