<svg width="234" height="68" viewBox="0 0 234 68" fill="none" xmlns="http://www.w3.org/2000/svg">
<g id="Logo">
<path id="Vector" d="M74.4678 19.548V29.052L70.7598 32.76H59.9598V43.56H62.8398V45H48.7998V43.56H51.6798V17.64H48.7998V16.2H71.1198L74.4678 19.548ZM59.9598 31.32H66.1878V17.64H59.9598V31.32ZM80.533 45L77.545 42.012V36.468L80.533 33.48H89.785V24.84H86.005V30.6H78.445V26.388L81.433 23.4H95.077L98.065 26.388V43.56H100.945V45H92.773L90.613 42.804L88.417 45H80.533ZM86.005 34.92V43.56H87.625L89.785 41.4V34.92H86.005ZM121.662 26.028L120.546 27.144L118.242 24.84H115.182L112.662 27.36V43.56H115.542V45H107.73L104.382 41.652V24.84H101.502V23.4H109.314L111.87 25.92L114.39 23.4H119.034L121.662 26.028ZM125.913 45L122.925 42.012V36.468L125.913 33.48H135.165V24.84H131.385V30.6H123.825V26.388L126.813 23.4H140.457L143.445 26.388V43.56H146.325V45H138.153L135.993 42.804L133.797 45H125.913ZM131.385 34.92V43.56H133.005L135.165 41.4V34.92H131.385ZM173.198 43.56V45H165.386L162.866 42.444L160.31 45H151.31L147.962 41.652V26.748L151.31 23.4H160.094L162.038 25.344V14.76H159.158V13.32H166.97L170.318 16.668V43.56H173.198ZM162.038 41.04V27.576L159.302 24.84H156.422V43.56H159.518L162.038 41.04ZM179.92 20.52L174.448 15.012L179.956 9.54004L185.428 15.048L179.92 20.52ZM187.408 43.56V45H179.596L176.248 41.652V24.84H173.368V23.4H181.18L184.528 26.748V43.56H187.408ZM190.997 45.36H189.377V37.62H190.997V40.32L194.237 43.56H201.833L189.737 30.744V26.388L192.725 23.4H203.345L205.793 25.848V23.04H207.413V30.78H205.793V28.08L202.553 24.84H195.677L207.773 37.656V42.012L204.785 45H193.445L190.997 42.552V45.36ZM214.528 45L211.18 41.652V26.748L214.528 23.4H228.352L231.7 26.748V32.652L228.352 36H219.46V43.56H227.74L230.764 40.536L231.88 41.652L228.532 45H214.528ZM219.46 24.84V34.56H223.42V24.84H219.46Z" fill="white"/>
<path id="Vector_2" d="M5.7369 33.5341C5.7369 33.5341 7.33435 26.7608 10.9913 23.3192C11.634 22.7146 12.1474 22.1349 12.5565 21.5842C12.988 23.2695 13.5271 24.9125 14.0629 26.5257C15.0003 29.2999 15.9435 32.017 16.6946 34.7547C16.8934 35.4661 17.0772 36.1799 17.2495 36.8938L13.4202 38.6171L17.7306 39.1107C18.5342 43.1363 18.8727 47.2409 18.7393 51.3437H23.7428C23.583 45.4011 22.4509 39.4651 20.4991 33.8421C19.5409 31.0265 18.4014 28.2887 17.3091 25.5957C17.0135 24.8578 16.722 24.1241 16.4421 23.3904L19.6618 21.0219L15.7291 21.4112C15.2959 20.1259 14.9316 18.8407 14.6972 17.5496C14.1887 14.8632 14.3676 12.1486 15.3034 9.54496C15.7531 8.24729 16.3601 6.9935 17.2122 5.90121C18.0553 4.80808 19.1583 3.87893 20.485 3.34065C21.8534 2.7877 23.3639 2.69184 24.7912 3.06736C25.9605 3.36632 27.0346 3.9634 27.9522 4.72775L27.9497 4.72941C17.6884 10.3358 24.1933 21.5064 24.1933 21.5064C24.1933 21.5064 24.3093 20.005 24.7068 17.9769C25.1342 18.9804 25.7135 19.9122 26.4243 20.7396C30.6494 25.6694 31.5098 31.4017 31.5189 31.4588L31.7483 33.0761L32.6311 31.8869C32.6924 31.805 33.3731 30.8741 34.2575 29.3181C35.9237 30.2224 37.5187 30.547 37.5949 30.5619L38.3294 30.706L38.2532 29.9069C38.2011 29.3471 38.3021 28.7343 38.5075 28.0883C40.8916 28.7069 42.8593 28.3865 42.947 28.3724L43.7859 28.2299L43.3006 27.3952C43.294 27.3819 42.5586 26.0627 42.4394 23.9659C44.3201 24.2665 45.1871 24.7394 45.1971 24.746L45.7113 25.035L45.9813 24.5431C46.0103 24.4901 46.6264 23.3018 46.7755 21.47C48.7456 21.1727 50.0673 20.8273 50.2097 20.7876L51.3434 20.4861L50.3546 19.6249C50.3207 19.5976 47.0545 16.7256 43.9607 10.9635C43.5213 10.1486 43.0161 9.37091 42.4502 8.63816C44.0352 9.14746 45.0902 9.58057 45.0902 9.58057C45.0902 9.58057 37.652 -0.590461 29.3078 3.96836L28.676 4.32115C27.7352 3.36632 26.5609 2.55724 25.1647 2.08935C23.5217 1.52125 21.593 1.508 19.8987 2.06782C18.1902 2.61769 16.7559 3.66361 15.6553 4.87019C14.5423 6.08008 13.7291 7.4556 13.0981 8.8659C12.2468 10.7731 11.8046 12.8401 11.7201 14.9079C9.85847 14.8002 6.12529 15.1944 3.23596 19.4237C-1.43384 26.2582 5.7369 33.5341 5.7369 33.5341ZM41.6403 22.5225L41.8398 22.231L42.0684 21.8956C43.2144 21.8635 44.3584 21.7795 45.4968 21.6439C45.4231 22.2099 45.2873 22.7662 45.0919 23.3026C44.4716 23.0608 43.3379 22.7146 41.6403 22.5225ZM39.0002 26.8569C39.4706 25.8574 40.1132 24.8106 40.7923 23.7821C40.9297 23.792 41.0647 23.8011 41.1947 23.8144C41.2459 24.9398 41.4702 26.0507 41.8597 27.1078C41.1964 27.1376 40.1579 27.1145 39.0002 26.8569ZM34.8637 28.2068C35.9547 26.1223 36.84 23.9365 37.5071 21.6803C38.4805 21.8057 39.4599 21.8789 40.4411 21.8998C38.8462 24.2409 37.1974 26.8006 37.016 29.068C36.2731 28.8493 35.5524 28.5609 34.8637 28.2068ZM25.7253 14.0897C26.4856 16.1617 28.3778 18.8357 33.0559 20.6037C34.0811 20.9921 35.1478 21.272 36.2243 21.4741C35.0774 25.2396 33.3855 28.2498 32.4075 29.8092C31.8468 27.6312 30.4581 23.5817 27.2872 19.8833C26.246 18.6676 25.5454 17.1978 25.2566 15.6234C25.3958 15.1166 25.5514 14.6023 25.7253 14.0897ZM30.0283 7.83157C32.5889 6.43121 36.9141 7.11193 40.2747 8.00133C41.3222 9.04442 42.2091 10.2372 42.9065 11.5407C45.1515 15.7269 47.4578 18.4241 48.7066 19.7259C46.0268 20.2857 38.9041 21.4368 33.3458 19.3359C29.3931 17.8436 26.975 15.3832 26.5344 12.4086C26.5203 12.3142 26.5137 12.219 26.5038 12.1246C27.3493 10.2878 28.4913 8.67046 30.0283 7.83157Z" fill="white"/>
<path id="Vector_3" d="M35.3009 37.6004C38.6225 40.3423 45.1605 41.5389 45.1605 41.5389C45.1605 41.5389 38.138 46.9159 31.542 43.4138C25.8834 40.411 27.3335 36.1801 27.3335 36.1801C27.3335 36.1801 30.4812 33.6204 35.3009 37.6004Z" fill="white"/>
</g>
</svg>
